<?xml version="1.0" standalone="no"?>
<!DOCTYPE svg PUBLIC "-//W3C//DTD SVG 20010904//EN"
 "http://www.w3.org/TR/2001/REC-SVG-20010904/DTD/svg10.dtd">
<svg version="1.0" xmlns="http://www.w3.org/2000/svg"
 width="1280.000000pt" height="1212.000000pt" viewBox="0 0 1280.000000 1212.000000"
 preserveAspectRatio="xMidYMid meet">
<metadata>
Created by potrace 1.15, written by Peter Selinger 2001-2017
</metadata>
<g transform="translate(0.000000,1212.000000) scale(0.100000,-0.100000)"
fill="#000000" stroke="none">
<path d="M4180 12113 c1 -10 226 -168 436 -307 211 -138 430 -259 620 -343 85
-37 152 -68 151 -70 -7 -7 -351 133 -472 191 -71 34 -244 127 -384 205 -139
78 -255 140 -257 138 -4 -4 1010 -581 1184 -675 35 -19 62 -36 60 -38 -3 -2
-240 97 -528 221 -288 124 -526 223 -528 221 -2 -3 9 -11 25 -19 177 -92 1285
-687 1279 -687 -8 0 -341 100 -1005 301 -107 32 -197 57 -199 55 -5 -5 -47 13
736 -322 l654 -279 -629 -5 c-345 -3 -614 -8 -598 -12 17 -4 300 -37 630 -73
330 -36 611 -69 625 -72 22 -5 23 -7 5 -10 -227 -47 -950 -205 -954 -208 -7
-8 31 -6 530 20 260 14 478 24 485 23 7 -2 -148 -76 -344 -165 l-357 -162 -65
15 c-109 25 -311 29 -430 9 -258 -43 -482 -163 -666 -358 -96 -101 -160 -196
-290 -429 -181 -324 -235 -382 -353 -381 -63 1 -118 20 -163 58 -42 35 -46 25
-10 -27 78 -113 199 -191 297 -189 65 0 104 19 159 75 54 56 84 114 156 295
65 164 130 300 184 386 48 74 55 70 12 -8 -52 -93 -135 -306 -211 -542 -37
-116 -78 -231 -91 -257 -73 -145 -183 -190 -335 -137 -33 12 -63 19 -65 16 -8
-7 76 -72 126 -97 61 -31 161 -38 226 -16 111 37 157 109 239 371 125 399 173
518 261 646 44 63 115 147 92 109 -142 -238 -195 -386 -263 -727 -49 -243 -79
-354 -121 -441 -61 -127 -155 -199 -295 -225 -32 -6 -59 -15 -59 -18 0 -12 97
-21 142 -14 77 12 160 60 225 127 100 104 128 177 188 483 21 104 51 230 67
280 41 125 117 276 186 370 55 76 195 215 216 215 5 0 -18 -28 -51 -63 -217
-225 -320 -539 -378 -1152 -4 -38 -15 -110 -26 -159 l-19 -89 -178 -181 c-232
-236 -345 -382 -457 -585 -176 -324 -277 -740 -300 -1241 -3 -69 -8 -163 -11
-210 -3 -53 -2 -81 4 -75 5 6 43 158 83 338 l74 329 8 -339 c4 -186 6 -429 5
-540 -3 -189 1 -238 15 -161 3 18 18 89 32 158 14 69 46 242 70 385 61 352
117 635 125 630 4 -2 10 -51 13 -107 6 -109 24 -219 81 -493 36 -177 60 -337
72 -490 6 -79 8 -85 15 -50 14 82 29 332 44 745 9 234 20 472 25 530 5 58 10
121 10 140 0 25 3 31 9 20 5 -8 63 -231 130 -495 66 -264 126 -500 132 -525
13 -48 34 -83 25 -40 -5 26 -21 162 -31 265 -3 33 -17 231 -30 440 -14 209
-30 417 -36 462 -6 46 -9 88 -7 95 7 21 101 -231 183 -492 92 -295 124 -390
163 -495 38 -101 83 -198 89 -192 2 3 -3 29 -11 58 -25 87 -62 289 -106 576
-70 467 -118 736 -136 764 -3 5 -3 9 0 9 15 0 98 -230 166 -460 28 -96 74
-251 102 -344 57 -193 128 -384 162 -436 12 -19 42 -87 66 -150 23 -63 47
-119 52 -125 7 -7 8 -3 4 10 -21 72 -90 382 -186 835 -61 289 -122 572 -136
629 -13 57 -23 106 -20 108 5 6 65 -183 249 -797 98 -323 178 -553 185 -532 1
5 -8 70 -22 143 -14 74 -51 292 -81 484 -31 193 -67 415 -81 494 -13 79 -22
147 -19 149 3 3 5 1 5 -4 0 -23 218 -959 256 -1099 30 -110 33 -119 39 -113 2
2 -4 56 -15 119 -36 205 -130 942 -115 889 3 -8 30 -181 60 -385 154 -1035
177 -1044 64 -25 -27 250 -56 518 -63 595 -13 138 -14 184 -1 109 4 -22 45
-230 91 -464 46 -234 95 -489 108 -568 13 -79 27 -147 31 -150 7 -7 2 197 -16
643 -5 132 -8 267 -8 300 2 55 2 52 10 -30 16 -158 68 -754 80 -912 7 -84 15
-153 19 -153 3 0 14 127 23 283 30 493 58 912 60 920 3 11 48 -714 47 -770 0
-24 5 -43 10 -43 6 0 10 10 10 23 0 12 14 190 30 395 17 206 30 392 31 415 0
32 2 37 9 22 4 -11 22 -252 40 -535 18 -283 36 -544 40 -580 l6 -65 8 55 c4
30 22 246 41 480 l34 425 -6 -375 c-3 -206 -3 -373 0 -370 5 4 64 340 188
1060 36 215 37 223 -21 -357 -39 -387 -44 -461 -36 -452 2 2 40 202 85 444 45
242 86 449 91 460 6 15 7 11 4 -15 -7 -58 -64 -877 -63 -912 1 -31 1 -32 9 -8
4 14 13 46 20 72 11 41 19 51 70 82 32 20 60 36 62 36 3 0 1 -30 -4 -66 -14
-105 -4 -108 16 -5 l19 93 68 44 c72 47 84 52 76 30 -3 -7 -112 -167 -242
-356 -130 -188 -235 -343 -233 -346 2 -2 87 93 189 210 101 118 186 212 188
210 2 -2 -1 -9 -7 -16 -18 -22 -132 -287 -172 -398 -39 -108 -67 -218 -95
-375 -9 -49 -52 -233 -95 -407 -84 -334 -132 -549 -125 -556 5 -5 12 11 125
303 51 132 96 243 100 248 11 12 -79 -406 -92 -430 -28 -48 -227 -262 -498
-537 -403 -407 -589 -574 -1085 -972 -542 -434 -764 -600 -1560 -1169 -1024
-731 -1555 -1171 -2180 -1806 -212 -216 -509 -539 -501 -546 1 -2 137 11 302
27 164 17 496 51 738 75 241 24 441 46 443 49 3 3 -9 23 -27 44 -25 32 -33 52
-37 100 -16 178 146 425 520 788 312 304 652 588 1457 1219 676 530 869 690
1150 957 399 378 935 926 1128 1151 34 40 41 32 23 -31 -5 -17 -6 -32 -2 -32
5 0 14 28 21 63 12 52 24 74 75 137 34 41 88 110 120 153 31 42 58 77 59 77 0
0 1 -177 1 -392 0 -350 11 -628 34 -858 l7 -75 7 115 c3 63 11 234 17 380 12
281 42 676 53 687 4 3 8 -90 8 -208 1 -240 11 -418 21 -379 4 14 12 88 18 165
21 257 98 927 108 937 5 5 11 -19 15 -64 23 -264 41 -424 50 -433 6 -6 7 5 3
30 -3 22 -11 150 -17 285 l-12 245 59 90 58 89 18 -64 17 -65 -5 85 -6 85 52
90 c222 383 363 785 430 1222 34 217 35 219 38 73 3 -123 -14 -292 -34 -343
-3 -9 -2 -17 3 -17 20 0 74 137 108 275 l22 90 31 -100 c45 -142 83 -307 147
-640 67 -346 104 -515 151 -690 45 -166 70 -289 79 -388 4 -43 10 -75 13 -72
3 3 10 35 17 72 l11 68 8 -80 c7 -78 -5 -307 -25 -489 -8 -77 -7 -110 4 -95
10 13 120 257 145 320 84 209 110 399 92 652 -6 89 -14 166 -17 172 -2 5 5 -1
16 -15 33 -40 107 -189 135 -272 83 -247 84 -410 6 -908 -22 -140 -43 -303
-47 -362 -13 -226 53 -448 183 -611 64 -80 74 -61 24 44 -68 144 -84 218 -84
414 -1 167 0 175 57 470 32 165 63 346 70 403 6 56 14 97 18 90 8 -15 -6 -381
-21 -549 -10 -116 -14 -336 -5 -328 6 7 72 392 95 564 56 402 28 747 -80 1019
-60 152 -217 444 -361 674 -32 50 -57 92 -55 92 1 0 121 -135 266 -300 145
-165 265 -298 268 -296 2 3 -32 51 -76 108 -111 144 -223 304 -410 585 -88
132 -175 257 -192 277 -18 20 -29 36 -25 36 21 0 189 -147 318 -279 82 -83
150 -151 153 -151 6 0 -37 77 -118 211 -31 53 -60 103 -64 112 -6 17 173 250
187 242 19 -12 29 -112 27 -270 -3 -196 11 -491 22 -478 4 4 49 100 100 213
50 113 94 207 96 209 2 3 3 -178 2 -402 -2 -224 0 -407 4 -407 3 0 10 12 16
28 61 169 127 356 155 437 l35 100 5 -65 c4 -36 11 -184 17 -330 20 -527 23
-581 31 -573 4 4 40 102 78 217 39 115 72 211 74 212 2 2 25 -199 52 -446 27
-248 52 -450 55 -450 3 0 46 121 95 270 49 148 90 268 92 266 2 -2 -77 -805
-92 -931 -4 -30 -3 -46 3 -40 9 11 136 340 202 524 46 128 93 308 111 424 23
149 -1 346 -57 475 -13 28 -20 52 -16 52 4 0 45 -33 92 -73 170 -147 305 -348
405 -602 34 -88 39 -93 30 -30 -34 241 -143 518 -264 673 -59 75 -58 79 7 28
77 -59 202 -173 263 -240 26 -28 49 -49 52 -46 8 7 -121 198 -200 297 -71 90
-216 241 -318 333 -67 59 -68 61 -30 45 22 -9 61 -25 87 -36 27 -10 130 -59
230 -109 101 -49 187 -90 193 -90 5 0 -240 167 -545 370 -305 203 -552 370
-549 370 4 0 175 -77 380 -171 206 -94 381 -173 389 -176 41 -16 -47 48 -470
338 -250 171 -446 309 -435 306 11 -3 135 -50 275 -105 140 -55 257 -98 260
-95 3 2 -2 8 -10 13 -8 5 -82 58 -165 118 l-150 109 1 103 c1 70 5 105 14 110
9 6 9 9 1 11 -9 3 -8 69 3 272 9 147 16 288 16 314 0 25 2 44 5 41 3 -3 23
-158 45 -344 22 -186 44 -355 48 -374 8 -35 21 312 23 639 1 119 3 145 10 111
10 -51 119 -899 119 -924 0 -9 4 -16 8 -16 4 0 30 168 56 373 27 204 51 384
55 400 3 15 5 -188 4 -450 -2 -302 1 -471 7 -458 5 11 52 250 105 530 52 281
99 524 104 540 7 22 9 -1 10 -85 3 -276 15 -610 23 -610 4 0 8 8 8 18 0 22
112 713 115 710 2 -2 27 -231 56 -510 30 -280 56 -508 59 -508 3 0 18 192 34
428 41 628 35 612 72 192 18 -201 33 -380 33 -397 2 -64 21 -32 22 35 1 125
46 717 52 692 3 -14 33 -239 67 -500 33 -261 63 -476 65 -478 6 -7 14 165 26
553 6 215 13 392 15 394 2 2 4 -5 4 -16 0 -10 16 -172 35 -359 19 -186 35
-347 35 -356 0 -10 5 -18 10 -18 6 0 10 16 10 35 0 36 68 743 73 759 2 5 13
-67 25 -160 67 -506 86 -628 93 -599 4 17 21 192 39 390 18 198 35 367 38 375
2 8 28 -198 56 -457 28 -260 53 -473 57 -473 3 0 13 192 23 428 27 644 20 625
90 235 32 -180 62 -332 67 -337 5 -6 9 101 9 250 0 144 3 309 7 368 l6 107 84
-158 c186 -348 255 -474 259 -470 2 2 -41 156 -95 343 -55 186 -99 340 -97
341 1 1 153 -170 336 -381 184 -211 337 -382 339 -380 2 2 -117 186 -265 410
-148 224 -270 411 -272 415 -2 5 234 -134 525 -307 575 -344 563 -337 563
-330 0 3 -191 156 -425 342 -234 185 -425 338 -425 340 0 3 15 -3 33 -12 101
-53 1121 -533 1124 -530 2 2 -186 121 -419 264 -233 143 -432 267 -443 276
-11 8 70 -27 180 -78 110 -51 381 -178 603 -281 221 -103 405 -186 407 -183 2
2 -227 143 -510 312 -283 169 -515 309 -515 311 0 2 279 -134 621 -302 341
-168 623 -303 625 -300 6 6 -168 131 -336 242 -686 452 -1393 733 -2032 808
l-103 12 -26 90 c-24 82 -144 481 -217 728 -16 53 -28 97 -27 97 2 0 76 -124
166 -277 90 -152 164 -272 166 -267 2 6 -46 158 -107 338 -61 181 -109 330
-108 331 2 1 118 -91 258 -206 140 -115 259 -209 263 -209 8 0 -7 21 -260 352
-79 104 -143 190 -143 192 0 2 194 -84 431 -191 238 -106 434 -192 436 -189 4
4 -20 20 -476 316 -156 102 -278 186 -270 188 8 1 279 -16 603 -38 325 -22
592 -38 594 -35 6 5 37 -2 -508 115 -256 55 -473 100 -484 100 -11 0 -17 2
-14 5 6 6 994 45 1145 45 202 0 79 18 -365 54 -257 20 -476 38 -487 40 -60 8
59 16 555 35 537 22 704 31 697 37 -5 5 -1000 74 -1064 74 -28 0 -54 4 -57 8
-3 5 167 12 377 15 651 12 947 20 947 27 0 3 -53 14 -117 24 -654 100 -1199
100 -1739 0 -595 -110 -1150 -350 -1659 -717 -38 -28 -91 -68 -117 -90 l-47
-38 -190 128 c-104 70 -188 129 -187 130 3 3 379 -49 456 -63 72 -12 12 13
-218 92 -229 79 -235 82 -192 88 41 5 581 36 640 36 19 1 21 3 10 9 -8 4 -171
19 -362 32 -192 13 -348 26 -348 29 0 3 58 34 128 69 283 141 693 353 690 357
-2 2 -176 -58 -387 -132 -211 -74 -384 -134 -386 -132 -1 2 184 145 412 318
398 303 484 372 398 320 -49 -30 -649 -409 -687 -434 -16 -10 -28 -16 -28 -14
0 3 218 186 485 408 266 222 482 406 480 408 -3 3 -617 -426 -825 -576 -107
-78 56 56 493 402 268 213 487 389 487 392 0 15 -141 -35 -235 -83 -135 -68
-228 -140 -490 -373 -216 -193 -308 -269 -499 -412 -208 -157 -361 -309 -441
-438 -84 -136 -131 -242 -277 -619 -71 -184 -134 -343 -140 -355 -13 -25 -58
-80 -58 -71 0 3 31 101 69 218 38 117 120 367 181 557 61 190 127 394 147 453
19 60 33 110 30 113 -2 3 -53 -116 -112 -263 -100 -250 -152 -372 -140 -330
22 82 282 1030 300 1095 12 45 19 82 16 82 -3 0 -75 -155 -159 -343 -85 -188
-168 -373 -186 -412 l-33 -70 -7 255 c-4 140 -13 527 -22 859 -8 333 -16 606
-18 608 -5 5 -14 -153 -36 -647 -11 -239 -34 -725 -50 -1080 -16 -355 -30
-670 -31 -700 -1 -48 -2 -51 -10 -25 -4 17 -54 368 -110 780 -55 413 -103 752
-105 754 -2 2 -4 -12 -4 -32 0 -33 55 -1191 80 -1691 13 -254 12 -293 -6 -186
-35 217 -81 404 -144 583 -15 45 -54 197 -85 337 -31 140 -59 257 -61 259 -9
9 -2 -40 24 -196 16 -90 27 -163 26 -163 -2 0 -24 42 -50 93 -196 387 -501
727 -920 1024 -160 113 -323 207 -579 331 -243 118 -410 202 -927 466 -159 81
-288 144 -288 139z m1930 -1912 c-8 -5 -122 -65 -253 -135 l-239 -127 -94 38
c-51 21 -94 40 -94 43 0 5 661 187 685 189 6 0 3 -3 -5 -8z m-115 -266 c-93
-52 -176 -95 -182 -95 -7 0 -27 9 -45 20 -22 13 -28 21 -17 24 8 3 100 37 204
75 105 38 195 70 200 70 6 1 -66 -42 -160 -94z m2450 -128 c88 -41 169 -77
180 -81 19 -7 17 -10 -15 -36 -19 -16 -37 -30 -40 -30 -3 0 -62 43 -130 95
-69 53 -134 102 -145 110 -37 26 -10 15 150 -58z m-2195 39 c0 -6 -236 -136
-246 -136 -11 1 -59 39 -53 43 6 4 283 95 292 96 4 1 7 -1 7 -3z m2182 -172
c49 -27 87 -53 85 -58 -2 -5 -12 -15 -23 -23 -19 -12 -29 -6 -120 73 -145 126
-151 126 58 8z m-2192 -29 c-87 -46 -105 -52 -114 -36 -5 8 164 79 189 80 6 0
-28 -20 -75 -44z m2083 -53 c54 -30 96 -59 94 -65 -1 -5 -12 -16 -23 -23 -17
-11 -28 -4 -104 68 -47 44 -80 79 -75 77 6 -2 54 -28 108 -57z m1844 -541
l133 -273 -97 7 c-54 4 -101 10 -104 13 -4 4 -14 39 -23 77 -8 39 -49 209 -91
378 -41 170 -75 311 -74 315 1 7 34 -59 256 -517z m-3767 495 c0 -11 -131 -73
-136 -64 -8 13 -8 13 66 42 77 29 70 27 70 22z m-1520 -78 c-216 -256 -329
-569 -348 -965 l-7 -147 -75 -29 c-41 -15 -85 -38 -97 -49 -20 -19 -23 -19
-23 -4 0 46 73 494 94 578 79 311 245 549 461 661 28 14 51 26 53 27 2 0 -25
-33 -58 -72z m3378 18 c34 -21 62 -42 62 -47 0 -25 -26 -13 -81 37 -69 64 -68
64 19 10z m-84 -84 c64 -40 68 -45 52 -60 -15 -15 -21 -12 -84 52 -72 74 -71
74 32 8z m1740 -276 c91 -176 166 -323 166 -328 0 -4 -41 -8 -90 -8 -76 0 -92
3 -97 17 -13 35 -160 654 -153 646 4 -4 82 -152 174 -327z m-4890 261 c-78
-82 -130 -163 -176 -269 -71 -164 -98 -315 -98 -542 l0 -155 -42 -11 c-40 -10
-126 -37 -156 -48 -14 -5 -12 41 14 258 50 408 190 654 457 801 28 16 54 29
56 29 2 0 -23 -28 -55 -63z m1402 27 c-40 -24 -62 -32 -69 -25 -7 7 -3 13 14
20 13 5 40 16 59 24 59 26 58 19 -4 -19z m1713 -113 c14 -11 21 -23 17 -30
-10 -16 -13 -14 -76 53 l-55 60 45 -32 c25 -18 56 -41 69 -51z m1585 -229 c69
-145 126 -267 126 -272 0 -6 -20 -10 -43 -10 l-44 0 -58 188 c-32 103 -71 225
-87 271 -48 144 -45 139 106 -177z m-3174 234 c0 -4 -78 -56 -85 -56 -3 0 -5
5 -5 10 0 6 19 20 43 30 46 21 47 22 47 16z m2999 -255 c72 -140 131 -259 131
-263 0 -4 -28 -8 -62 -8 l-63 0 -67 248 c-37 136 -70 256 -74 267 -17 47 12
-5 135 -244z m-4419 120 c-67 -209 -120 -491 -120 -641 l0 -59 -37 -7 c-21 -3
-69 -12 -106 -20 -38 -8 -71 -14 -73 -14 -7 0 4 75 27 190 38 189 121 395 206
513 51 72 124 157 133 157 4 0 -9 -53 -30 -119z m2888 56 c56 -43 60 -48 37
-67 -19 -16 -24 -12 -75 61 -47 67 -44 67 38 6z m1385 -227 c98 -213 103 -225
83 -233 -11 -4 -31 -7 -44 -5 -23 3 -28 18 -88 237 -58 211 -71 266 -58 236 2
-5 51 -111 107 -235z m-2793 197 c0 -11 -63 -47 -72 -41 -7 4 2 14 23 25 32
17 49 23 49 16z m1365 -126 c-8 -8 -16 -13 -18 -10 -26 36 -77 120 -77 126 0
4 25 -17 55 -47 48 -48 53 -56 40 -69z m1345 -326 c0 -5 -131 -28 -135 -24 -2
3 -20 99 -39 214 -20 116 -38 221 -41 235 -2 14 45 -76 105 -199 61 -123 110
-225 110 -226z m-270 157 c39 -107 70 -195 68 -197 -7 -6 -82 -24 -86 -20 -4
4 -61 379 -62 404 0 25 7 9 80 -187z m-3851 -150 l-22 -260 -29 -4 c-26 -4
-29 -2 -24 16 2 12 24 132 47 268 24 136 45 245 47 243 2 -2 -6 -120 -19 -263z
m741 20 c-23 -171 -16 -157 -105 -229 -55 -46 -39 -50 24 -6 l54 35 -5 -46
c-3 -26 -8 -49 -10 -51 -7 -8 -228 28 -228 37 0 28 148 383 157 375 2 -2 -15
-55 -38 -116 -22 -62 -38 -115 -35 -118 4 -4 36 60 36 74 0 2 16 30 36 61 49
77 127 168 132 153 2 -6 -6 -82 -18 -169z m-465 -33 c-8 -101 -15 -194 -15
-206 0 -19 -7 -22 -57 -25 -32 -2 -59 -3 -61 -2 -8 5 32 173 55 239 28 78 82
189 88 183 3 -2 -2 -87 -10 -189z m2282 88 c3 -5 1 -12 -3 -16 -5 -4 -29 15
-54 43 l-45 50 48 -34 c27 -19 51 -38 54 -43z m917 -251 c-15 -4 -29 -4 -34 0
-6 7 -88 246 -107 314 -3 8 34 -57 81 -145 l85 -160 -25 -9z m-3388 182 c-11
-229 -15 -258 -38 -258 -14 0 -18 5 -14 18 2 9 15 97 27 195 13 97 25 177 27
177 3 0 2 -60 -2 -132z m3599 -99 c4 -13 2 -19 -9 -19 -9 0 -18 10 -21 23 -2
12 -11 53 -20 90 -8 38 -15 74 -14 80 0 10 39 -95 64 -174z m-3299 94 c-13
-32 -31 -92 -41 -133 -10 -41 -21 -84 -26 -95 -8 -20 -8 -20 -8 0 -2 42 78
285 93 285 3 0 -6 -26 -18 -57z m2113 -10 c2 -2 1 -6 -2 -10 -8 -8 -57 36 -57
50 0 6 12 0 28 -14 15 -13 29 -25 31 -26z m853 -211 c-9 -7 -21 -11 -26 -9 -8
3 -86 248 -85 267 0 3 29 -51 64 -120 57 -113 62 -126 47 -138z m-2266 82 c-3
-9 -9 -26 -12 -39 -5 -19 -34 -45 -34 -30 0 16 34 85 42 85 6 0 7 -7 4 -16z
m1973 -79 c34 -47 61 -89 61 -94 0 -8 -41 -24 -46 -18 -4 4 -94 199 -94 204 0
13 24 -16 79 -92z m-2065 43 c-13 -45 -34 -91 -39 -86 -3 3 4 28 16 56 22 53
36 70 23 30z m1347 7 c16 -9 27 -20 24 -25 -3 -6 -19 0 -36 12 -43 32 -38 38
12 13z m-1284 -72 c-3 -5 -14 -40 -26 -80 -21 -70 -22 -72 -45 -62 l-24 11 25
57 c24 53 47 81 66 81 4 0 6 -3 4 -7z m1904 -65 c21 -36 34 -67 29 -72 -17
-18 -36 3 -54 60 -10 33 -21 66 -24 74 -9 27 10 2 49 -62z m-2016 -4 c-8 -20
-15 -38 -15 -40 0 -2 -4 -4 -9 -4 -5 0 -2 18 6 40 9 22 20 40 25 40 4 0 1 -16
-7 -36z m1867 -151 c-9 -7 -19 -13 -23 -13 -11 0 -27 84 -17 88 4 2 1 13 -7
25 -8 12 -15 28 -15 37 0 8 18 -16 39 -55 34 -62 37 -71 23 -82z m-1381 104
c-5 -14 -15 -28 -22 -32 -12 -8 -12 -7 10 38 17 33 25 29 12 -6z m-156 -57
c-19 -58 -60 -89 -95 -70 -19 10 -19 12 13 60 21 31 42 52 62 58 17 5 32 7 34
6 1 -1 -5 -26 -14 -54z m946 33 c13 -16 12 -17 -3 -4 -10 7 -18 15 -18 17 0 8
8 3 21 -13z m-1069 -43 c-17 -31 -27 -36 -36 -22 -7 12 23 52 39 52 11 0 11
-6 -3 -30z m248 -33 c0 -11 -34 -103 -40 -110 -4 -5 -17 -4 -29 2 -20 11 -20
13 -5 44 22 42 44 67 61 67 7 0 13 -1 13 -3z m1250 -83 c0 -8 -4 -12 -10 -9
-5 3 -10 13 -10 21 0 8 5 12 10 9 6 -3 10 -13 10 -21z m-120 -74 c0 -5 -5 -10
-11 -10 -5 0 -7 5 -4 10 3 6 8 10 11 10 2 0 4 -4 4 -10z m719 -580 c33 -123
59 -225 58 -226 -2 -2 -110 17 -114 20 -2 2 -31 327 -31 356 0 8 -5 60 -11
115 -18 170 -22 181 98 -265z m-155 70 c19 -102 38 -202 42 -224 l7 -39 -49 7
c-27 4 -52 11 -56 14 -4 4 -4 110 -1 237 4 129 10 221 14 210 4 -11 24 -103
43 -205z m-172 -83 c11 -70 18 -131 15 -133 -3 -3 -31 0 -62 6 l-56 12 5 36
c3 21 10 84 16 142 6 58 13 116 16 130 10 45 43 -54 66 -193z m-196 -95 c-4
-3 -86 14 -91 20 -3 3 24 108 56 218 13 45 13 45 25 -95 7 -77 11 -141 10
-143z m-1746 -127 l-51 -377 -61 -69 c-34 -38 -63 -68 -64 -66 -2 2 47 206
109 455 62 248 113 448 115 443 1 -4 -20 -178 -48 -386z m274 250 c4 -60 9
-123 12 -140 4 -27 1 -32 -36 -52 -25 -13 -40 -17 -40 -10 -1 42 46 343 51
329 3 -9 9 -66 13 -127z m1310 13 l-7 -104 -51 10 c-28 5 -53 11 -55 12 -2 2
23 46 55 98 32 52 60 93 62 92 1 -2 0 -50 -4 -108z m-1459 -136 l-7 -152 -29
-17 c-36 -21 -38 -36 -3 -23 14 6 27 10 30 10 2 0 4 -31 4 -69 l0 -68 -61 -67
c-34 -37 -63 -65 -65 -63 -2 1 22 124 52 272 30 149 60 297 67 330 17 86 21
36 12 -153z m409 90 c-14 -7 -27 -12 -29 -10 -2 2 -6 30 -10 63 l-7 60 36 -50
36 -49 -26 -14z m-109 -43 c4 -10 -4 -20 -20 -27 -14 -7 -27 -12 -28 -12 -1 0
0 39 2 87 l4 88 19 -60 c10 -33 21 -67 23 -76z m1013 24 c-2 -7 -8 -9 -14 -5
-6 4 -8 28 -5 57 l4 50 9 -45 c4 -25 7 -51 6 -57z m-173 37 c3 -5 1 -10 -4
-10 -6 0 -11 5 -11 10 0 6 2 10 4 10 3 0 8 -4 11 -10z m-57 -247 c2 10 5 17 8
17 17 0 123 -145 113 -154 -2 -2 -48 33 -101 77 -83 69 -98 86 -98 111 0 29 0
29 38 -19 26 -34 38 -43 40 -32z m937 27 c18 0 25 -8 33 -41 8 -32 8 -39 -3
-35 -19 7 -115 77 -115 83 0 3 14 3 31 -1 17 -3 42 -6 54 -6z m170 -25 c16 -3
25 -24 46 -105 15 -55 25 -100 23 -100 -3 0 -117 81 -160 114 -1 1 -4 25 -8
54 l-7 52 43 -5 c24 -4 52 -8 63 -10z m-2071 -49 c-27 -30 -52 -54 -55 -55 -3
-1 -3 18 0 41 5 36 10 43 41 54 62 22 64 15 14 -40z m1136 -345 l75 -27 36
-95 c56 -145 57 -151 9 -89 -24 30 -86 97 -138 148 -106 102 -104 108 18 63z
m-1025 -302 c63 -183 54 -177 92 -54 19 59 36 105 39 103 7 -7 -89 -319 -143
-463 l-48 -130 -3 300 c-2 209 1 308 9 328 7 15 13 26 15 24 2 -2 20 -50 39
-108z m-105 -625 c0 -28 -49 -135 -50 -109 0 11 -9 105 -20 210 -11 104 -20
199 -19 210 1 25 89 -282 89 -311z m-137 -301 l-28 -48 -6 85 c-4 47 -9 144
-12 215 l-6 130 40 -167 40 -167 -28 -48z m-299 -458 c-15 -20 -28 -34 -30
-32 -2 2 9 38 24 80 l27 77 3 -45 c3 -36 -2 -52 -24 -80z"/>
</g>
</svg>
